<svg height="22" viewBox="0 0 198 22" width="198" xmlns="http://www.w3.org/2000/svg"><g fill="#1f1922" transform="translate(.356 .724)"><path d="m8.484 21.224c6.104 0 9.912-2.94 9.912-7.308 0-6.048-9.352-4.676-9.352-6.832 0-.672.952-1.316 2.884-1.316 1.904 0 3.808.476 5.376 1.456l2.38-4.816c-1.82-1.092-4.424-1.68-7.336-1.68-6.188 0-9.912 2.912-9.912 7.364 0 6.076 9.324 4.872 9.324 6.944 0 .7-.896 1.148-2.604 1.148-2.184 0-4.424-.56-6.608-1.82l-2.548 4.872c1.876 1.148 4.984 1.988 8.484 1.988z"/><path d="m32.452 5.46-.336 1.624c-.924-1.372-2.492-1.904-4.368-1.904-4.396 0-8.148 3.752-8.148 8.792 0 4.564 3.248 7.084 6.3 7.084 1.652 0 3.024-.588 4.144-1.68l-.28 1.4h5.964l3.052-15.316zm-6.44 8.204c0-2.128 1.12-3.5 2.772-3.5 1.428 0 2.268.98 2.268 2.408 0 2.128-1.12 3.5-2.772 3.5-1.428 0-2.268-.98-2.268-2.408z"/><path d="m52.052 5.46-.336 1.624c-.924-1.372-2.492-1.904-4.368-1.904-4.396 0-8.148 3.752-8.148 8.792 0 4.564 3.248 7.084 6.3 7.084 1.652 0 3.024-.588 4.144-1.68l-.28 1.4h5.964l3.052-15.316zm-6.44 8.204c0-2.128 1.12-3.5 2.772-3.5 1.428 0 2.268.98 2.268 2.408 0 2.128-1.12 3.5-2.772 3.5-1.428 0-2.268-.98-2.268-2.408z"/><path d="m66.08 21.224c6.104 0 9.912-2.94 9.912-7.308 0-6.048-9.352-4.676-9.352-6.832 0-.672.952-1.316 2.884-1.316 1.904 0 3.808.476 5.376 1.456l2.38-4.816c-1.82-1.092-4.424-1.68-7.336-1.68-6.188 0-9.912 2.912-9.912 7.364 0 6.076 9.324 4.872 9.324 6.944 0 .7-.896 1.148-2.604 1.148-2.184 0-4.424-.56-6.608-1.82l-2.548 4.872c1.876 1.148 4.984 1.988 8.484 1.988z"/><path d="m106.848 1.176-8.204 10.416-4.256-10.416h-5.376l-3.92 19.6h6.02l1.764-8.82 3.024 7.056h2.912l5.516-7.168-1.736 8.932h6.02l3.864-19.6z"/><path d="m125.16 5.46-.336 1.624c-.924-1.372-2.492-1.904-4.368-1.904-4.396 0-8.148 3.752-8.148 8.792 0 4.564 3.248 7.084 6.3 7.084 1.652 0 3.024-.588 4.144-1.68l-.28 1.4h5.964l3.052-15.316zm-6.44 8.204c0-2.128 1.12-3.5 2.772-3.5 1.428 0 2.268.98 2.268 2.408 0 2.128-1.12 3.5-2.772 3.5-1.428 0-2.268-.98-2.268-2.408z"/><path d="m152.46 5.46h-7.784l-4.956 4.368 1.96-9.828h-6.328l-4.144 20.776h6.328l.588-2.94 1.624-1.512 2.632 4.452h7.42l-5.012-8.4z"/><path d="m168.504 11.928c0-3.948-2.884-6.748-7.784-6.748-5.712 0-9.492 3.752-9.492 8.792 0 4.34 3.388 7.084 8.428 7.084 2.324 0 4.592-.476 6.692-1.904l-2.632-3.836c-.98.728-2.184 1.064-3.332 1.064-1.652 0-2.66-.504-2.94-1.792h10.724c.196-.812.336-1.708.336-2.66zm-8.064-2.436c1.344 0 2.268.756 2.268 2.044h-5.012c.42-1.176 1.288-2.044 2.744-2.044z"/><path d="m177.38 7.028.308-1.568h-5.964l-3.052 15.316h6.328l1.428-7.084c.448-2.156 1.736-3.024 3.836-3.024.448 0 .84.028 1.372.112l1.12-5.6c-2.184 0-4.06.56-5.376 1.848z"/><path d="m187.824 21.056c4.704 0 8.568-1.904 8.568-5.74 0-5.124-7.7-3.668-7.7-5.068 0-.364.476-.756 1.932-.756 1.288 0 2.968.224 4.564 1.148l2.184-4.312c-1.596-.728-3.752-1.148-5.992-1.148-4.788 0-8.624 1.848-8.624 5.796 0 5.124 7.728 3.724 7.728 5.04 0 .42-.476.728-1.876.728-1.708 0-3.808-.476-5.32-1.4l-2.184 4.312c1.344.784 3.976 1.4 6.72 1.4z"/></g></svg>