<svg height="28" viewBox="0 0 28 28" width="28" xmlns="http://www.w3.org/2000/svg"><path d="m22.8124201 5.67499548c-1.6477182-.78249567-3.4095364-1.35118096-5.2514691-1.67499548-.2262115.41511866-.4904912.9734623-.6727025 1.41762262-1.9580217-.29888119-3.8980387-.29888119-5.8200508 0-.1821765-.44416032-.4524578-1.00250396-.680693-1.41762262-1.84392161.32381452-3.6077637.8945894-5.25548183 1.67913923-3.32346233 5.09755517-4.22439833 10.06849577-3.77392946 14.96885107 2.20429493 1.6708163 4.34052229 2.6857869 6.4406982 3.3499555.51854515-.7243769.98101722-1.4944059 1.37942571-2.3059432-.75878359-.2926479-1.48553538-.6537916-2.17222999-1.073054.18217645-.1369916.36037509-.2802166.53253725-.4275853 4.18834862 1.9883975 8.73909612 1.9883975 12.87740812 0 .174186.1473687.3523497.2905937.5325372.4275853-.6887183.4213166-1.4174591.7824603-2.1762427 1.0751435.3984085.8094478.8588917 1.5815664 1.3794258 2.3059079 2.1021996-.6641686 4.240409-1.6791039 6.4447056-3.3520097.5285595-5.6807614-.9029266-10.6060499-3.7839385-14.97299482zm-12.92622837 11.96136812c-1.24860082 0-2.27255537-1.2292679-2.27255537-2.726213 0-1.496945 1.0020894-2.7283324 2.27255537-2.7283324 1.27050067 0 2.29442057 1.2292314 2.27255537 2.7283324.0019751 1.4969451-1.0020547 2.726213-2.27255537 2.726213zm8.18181817 0c-1.2486008 0-2.2725554-1.2292679-2.2725554-2.726213 0-1.496945 1.0020548-2.7283324 2.2725554-2.7283324 1.270466 0 2.2944206 1.2292314 2.2725554 2.7283324 0 1.4969451-1.0020894 2.726213-2.2725554 2.726213z"/></svg>
