<svg height="28" viewBox="0 0 28 28" width="28" xmlns="http://www.w3.org/2000/svg"><path d="m14.0695669 4.99892819c.0129176.00001828.028945.0000457.0479625.00008683l.3640756.00144402c.8204723.00447832 2.645524.02175181 4.5178764.08837814l.5621674.02150504c1.8722397.07686248 3.6960522.20673355 4.5141585.42617089 1.1069837.29632693 1.9770008 1.1662604 2.2732765 2.27325308.4895927 1.83262395.5333634 5.48765681.5372699 6.10076971l.0000436.1764465c-.0036116.6131156-.0457459 4.2681649-.5373135 6.1008053-.2962757 1.1069837-1.1662928 1.9769108-2.2732765 2.2731865-1.7998339.4827896-8.4672854.5320538-9.8092493.5370808h-.4724422c-1.3419469-.005027-8.00931871-.0542912-9.80922531-.5370808-1.10698368-.2962757-1.97691715-1.1662028-2.27324408-2.2731865-.46081841-1.7181004-.52664961-5.0379274-.53605407-5.9513861v-.4752843c.00940446-.9134546.07523566-4.23326615.53605407-5.95135111.29632693-1.10699268 1.1662604-1.97692615 2.27324408-2.27325308.81813937-.21943734 2.64195337-.34930841 4.51418335-.42617089l.56216421-.02150504c1.87234055-.06662633 3.69737125-.08389982 4.51783345-.08837814l.364071-.00144402c.0190172-.00004113.0350444-.00006855.0479619-.00008683zm-2.6129236 5.14368461v7.7129493l6.6800615-3.8564432z"/></svg>
