<svg height="25" viewBox="0 0 25 25" width="25" xmlns="http://www.w3.org/2000/svg"><path d="m1008.87732 14.9352904c-.02412 0-.04884 0-.0609.0120604-.24332.0485434-.35277.4007059-.17035.5704544l11.42128 11.4197395-11.42128 11.3958116c-.1583.1215069-.17035.3765851-.03618.5101563.13387.1335712.38895.1209049.51106-.0361812l11.43363-11.4081614 11.43363 11.4081614c.12181.157391.36513.1697485.51136.0361812.13387-.1335712.12151-.3880396-.03678-.5101563l-11.43363-11.3950398 11.43363-11.4197394c.20714-.2065356-.02412-.6310612-.30392-.5704544-.07297.0120604-.13388.0485433-.17065.0973862l-11.43364 11.3958116-11.43363-11.3958116c-.06091-.0729652-.15799-.1094504-.24332-.1094504z" fill="#fff" transform="translate(-1008 -14)"/></svg>
